<svg width="77" height="13" viewBox="0 0 77 13" fill="none" xmlns="http://www.w3.org/2000/svg">
<path fill-rule="evenodd" clip-rule="evenodd" d="M8.5716 4.83688L7 0L5.4284 4.83688H0.342606L4.4571 7.82624L2.8855 12.6631L7 9.67376L11.1145 12.6631L9.5429 7.82624L13.6574 4.83688H8.5716ZM23.5716 4.83688L22.5257 1.61803L22 0L21.4743 1.61803L20.4284 4.83688H17.0439H15.3426L16.719 5.83688L19.4571 7.82624L18.4112 11.0451L17.8855 12.6631L19.2619 11.6631L22 9.67376L24.7381 11.6631L26.1145 12.6631L25.5888 11.0451L24.5429 7.82624L27.281 5.83688L28.6574 4.83688H26.9561H23.5716ZM25.5797 5.83688H23.5716H22.8451L22.6205 5.1459L22 3.23607L21.3795 5.1459L21.1549 5.83688H20.4284H18.4203L20.0449 7.01722L20.6327 7.44427L20.4082 8.13525L19.7876 10.0451L21.4122 8.86475L22 8.43769L22.5878 8.86475L24.2124 10.0451L23.5918 8.13525L23.3673 7.44427L23.9551 7.01722L25.5797 5.83688ZM38.5257 1.61803L39.5716 4.83688H42.9561H44.6574L43.281 5.83688L40.5429 7.82624L41.5888 11.0451L42.1145 12.6631L40.7381 11.6631L38 9.67376L35.2619 11.6631L33.8855 12.6631L34.4112 11.0451L35.4571 7.82624L32.719 5.83688L31.3426 4.83688H33.0439H36.4284L37.4743 1.61803L38 0L38.5257 1.61803ZM39.5716 5.83688H41.5797L39.9551 7.01722L39.3673 7.44427L39.5918 8.13525L40.2124 10.0451L38.5878 8.86475L38 8.43769L37.4122 8.86475L35.7876 10.0451L36.4082 8.13525L36.6327 7.44427L36.0449 7.01722L34.4203 5.83688H36.4284H37.1549L37.3795 5.1459L38 3.23607L38.6205 5.1459L38.8451 5.83688H39.5716ZM55.5716 4.83688L54.5257 1.61803L54 0L53.4743 1.61803L52.4284 4.83688H49.0439H47.3426L48.719 5.83688L51.4571 7.82624L50.4112 11.0451L49.8855 12.6631L51.2619 11.6631L54 9.67376L56.7381 11.6631L58.1145 12.6631L57.5888 11.0451L56.5429 7.82624L59.281 5.83688L60.6574 4.83688H58.9561H55.5716ZM57.5797 5.83688H55.5716H54.8451L54.6205 5.1459L54 3.23607L53.3795 5.1459L53.1549 5.83688H52.4284H50.4203L52.0449 7.01722L52.6327 7.44427L52.4082 8.13525L51.7876 10.0451L53.4122 8.86475L54 8.43769L54.5878 8.86475L56.2124 10.0451L55.5918 8.13525L55.3673 7.44427L55.9551 7.01722L57.5797 5.83688ZM71.5716 4.83688L70.5257 1.61803L70 0L69.4743 1.61803L68.4284 4.83688H65.0439H63.3426L64.719 5.83688L67.4571 7.82624L66.4112 11.0451L65.8855 12.6631L67.2619 11.6631L70 9.67376L72.7381 11.6631L74.1145 12.6631L73.5888 11.0451L72.5429 7.82624L75.281 5.83688L76.6574 4.83688H74.9561H71.5716ZM73.5797 5.83688H71.5716H70.8451L70.6205 5.1459L70 3.23607L69.3795 5.1459L69.1549 5.83688H68.4284H66.4203L68.0449 7.01722L68.6327 7.44427L68.4082 8.13525L67.7876 10.0451L69.4122 8.86475L70 8.43769L70.5878 8.86475L72.2124 10.0451L71.5918 8.13525L71.3673 7.44427L71.9551 7.01722L73.5797 5.83688Z" fill="#EF946C"/>
</svg>
