<svg width="77" height="13" viewBox="0 0 77 13" fill="none" xmlns="http://www.w3.org/2000/svg">
<path fill-rule="evenodd" clip-rule="evenodd" d="M8.5716 4.83688L7 0L5.4284 4.83688H0.342606L4.4571 7.82623L2.8855 12.6631L7 9.67377L11.1145 12.6631L9.5429 7.82623L13.6574 4.83688H8.5716ZM22 0L23.5716 4.83688H28.6574L24.5429 7.82623L26.1145 12.6631L22 9.67377L17.8855 12.6631L19.4571 7.82623L15.3426 4.83688H20.4284L22 0ZM39.5716 4.83688L38 0L36.4284 4.83688H31.3426L35.4571 7.82623L33.8855 12.6631L38 9.67377L42.1145 12.6631L40.5429 7.82623L44.6574 4.83688H39.5716ZM54 0L55.5716 4.83688H60.6574L56.5429 7.82623L58.1145 12.6631L54 9.67377L49.8855 12.6631L51.4571 7.82623L47.3426 4.83688H52.4284L54 0ZM70 0L71.5716 4.83688H76.6574L72.5429 7.82623L74.1145 12.6631L70 9.67377L65.8855 12.6631L67.4571 7.82623L63.3426 4.83688H68.4284L70 0Z" fill="#EF946C"/>
</svg>
